<?xml version="1.0" standalone="no"?>
<!DOCTYPE svg PUBLIC "-//W3C//DTD SVG 20010904//EN"
 "http://www.w3.org/TR/2001/REC-SVG-20010904/DTD/svg10.dtd">
<svg version="1.0" xmlns="http://www.w3.org/2000/svg"
 width="512.000000pt" height="512.000000pt" viewBox="0 0 512.000000 512.000000"
 preserveAspectRatio="xMidYMid meet">
<metadata>
Created by potrace 1.14, written by Peter Selinger 2001-2017
</metadata>
<g transform="translate(0.000000,512.000000) scale(0.100000,-0.100000)"
fill="#000000" stroke="none">
<path d="M2330 5110 c-905 -90 -1675 -623 -2070 -1432 -440 -900 -310 -1983
332 -2753 l83 -100 3 52 3 53 175 0 174 0 0 185 0 185 -170 0 -170 0 0 23 c0
40 39 166 72 230 36 72 66 116 119 172 l38 40 3 515 c3 498 4 516 24 560 25
55 72 103 128 133 36 19 62 22 200 27 l158 5 22 85 c88 332 330 614 646 750
378 164 827 111 1151 -136 197 -150 351 -378 412 -610 l24 -89 159 -5 c138 -5
164 -8 200 -27 56 -30 103 -78 128 -133 20 -43 21 -64 26 -565 l5 -520 65 3
c36 2 68 7 72 10 3 4 12 52 18 107 7 55 13 101 14 103 2 1 8 -43 14 -98 6 -54
13 -103 16 -109 3 -5 46 -12 96 -16 49 -4 90 -11 90 -15 0 -4 -41 -11 -90 -15
-50 -4 -93 -11 -96 -16 -2 -5 -10 -49 -15 -98 -10 -81 -9 -96 9 -153 12 -35
24 -84 28 -110 l6 -48 -176 0 -176 0 0 -185 0 -185 178 -2 177 -3 5 -50 5 -50
83 100 c400 480 612 1102 588 1725 -31 830 -450 1580 -1141 2042 -299 200
-662 340 -1030 398 -148 23 -476 34 -615 20z m928 -447 c-18 -18 -36 -33 -42
-33 -6 0 -25 14 -43 32 l-33 32 37 38 37 38 38 -37 38 -37 -32 -33z m-1160
-180 l-38 -37 -35 34 -35 34 37 38 37 38 36 -35 35 -35 -37 -37z m-1277 -874
c10 -89 20 -164 23 -166 3 -3 80 -14 172 -24 92 -11 169 -21 171 -22 1 -2 -76
-12 -171 -22 l-174 -18 -6 -31 c-3 -17 -10 -87 -17 -156 -6 -69 -15 -131 -19
-139 -4 -7 -10 18 -13 55 -4 38 -12 115 -18 170 l-11 101 -174 19 c-96 10
-172 19 -170 21 2 2 78 12 170 22 92 10 169 20 171 23 3 2 12 79 22 171 10 91
19 164 21 162 3 -2 13 -77 23 -166z m3750 -340 c10 -89 20 -163 22 -166 3 -2
77 -12 166 -22 89 -10 164 -21 166 -23 3 -2 -70 -12 -162 -21 -92 -10 -168
-19 -170 -21 -2 -2 -12 -76 -22 -165 -10 -89 -21 -164 -23 -166 -2 -3 -12 71
-22 163 -10 92 -18 168 -19 169 -1 1 -78 9 -171 19 -97 11 -160 21 -150 25 11
4 86 15 168 23 82 9 151 17 152 19 1 1 10 77 20 169 10 92 20 166 22 163 2 -2
13 -77 23 -166z m-3991 -624 l34 -35 -37 -38 -37 -37 -37 37 -37 38 34 35 c19
19 37 35 40 35 3 0 21 -16 40 -35z m3945 -435 l-35 -35 -37 37 -37 38 34 35
34 35 38 -37 38 -37 -35 -36z m-3995 -315 l34 -35 -34 -35 -34 -35 -38 37 -38
37 32 33 c18 18 35 33 38 33 3 0 21 -16 40 -35z"/>
<path d="M2210 3385 c-346 -90 -530 -312 -530 -639 1 -321 170 -599 462 -755
202 -109 469 -131 695 -59 l68 22 -98 7 c-236 18 -431 108 -592 273 -203 207
-287 506 -219 773 36 141 129 267 263 355 40 26 67 48 60 48 -8 -1 -57 -12
-109 -25z"/>
<path d="M4272 1689 c13 -17 38 -54 56 -82 l34 -52 -6 74 c-4 40 -9 77 -12 82
-3 5 -25 9 -50 9 l-45 0 23 -31z"/>
<path d="M2152 790 c-72 -44 -80 -133 -16 -189 68 -60 168 -30 195 58 9 32 8
44 -7 76 -33 70 -108 94 -172 55z"/>
<path d="M2499 793 c-75 -46 -78 -159 -5 -207 32 -21 100 -21 132 0 52 34 69
110 38 164 -34 56 -111 77 -165 43z"/>
<path d="M2849 795 c-77 -42 -84 -148 -14 -203 55 -44 149 -20 180 44 20 43
19 72 -5 111 -34 57 -105 78 -161 48z"/>
</g>
</svg>
